# xmcd CD database file
#
# Track frame offsets:
#	150
#	12459
#	27219
#	40428
#	55225
#	69210
#	85597
#	99169
#	114035
#	127916
#	142488
#	158236
#	171634
#	184980
#	199886
#	212535
#	226187
#	239674
#
# Disc length: 3366 seconds
#
# Revision: 0
# Processed by: cddbd v1.5.1PL0 Copyright (c) Steve Scherf et al.
# Submitted via: CDex 1.51
#
DISCID=f70d2412
DTITLE=Duke Ellington - Mood Indigo CD1
DYEAR=2004
DGENRE=Jazz
TTITLE0=Mood Indigo
TTITLE1=I Got It Bad (And That Ain't Good)
TTITLE2=The Gal From Joe's
TTITLE3=In A Sentimental Mood
TTITLE4=Three Little Words
TTITLE5=Sophisticated Lady
TTITLE6=I Let A Song Go Out Of My Heart
TTITLE7=Misty Morning
TTITLE8=Things Ain't What They Used To Be (Time's A Wastin')
TTITLE9=Solitude
TTITLE10=All To Soon
TTITLE11=Harlem Air Shaft
TTITLE12=Tonight I Shall Sleep
TTITLE13=Black And Tan Fantasy
TTITLE14=Main Stem
TTITLE15=East St. Louis Toodle-00
TTITLE16=Cotton Club Stomp (Wall Street Wail)
TTITLE17=Bojangles (A Portrait Of Bill Robinson)
EXTD=YEAR: 2004
EXTT0=
EXTT1=
EXTT2=
EXTT3=
EXTT4=
EXTT5=
EXTT6=
EXTT7=
EXTT8=
EXTT9=
EXTT10=
EXTT11=
EXTT12=
EXTT13=
EXTT14=
EXTT15=
EXTT16=
EXTT17=
PLAYORDER=
